<svg width="" height="" viewBox="0 0 71 100" fill="none" xmlns="http://www.w3.org/2000/svg">
<path d="M35.4998 47.1042C32.2123 47.1042 29.0593 45.7982 26.7347 43.4735C24.41 41.1488 23.104 37.9959 23.104 34.7083C23.104 31.4208 24.41 28.2678 26.7347 25.9432C29.0593 23.6185 32.2123 22.3125 35.4998 22.3125C38.7874 22.3125 41.9403 23.6185 44.265 25.9432C46.5897 28.2678 47.8957 31.4208 47.8957 34.7083C47.8957 36.3362 47.575 37.9481 46.9521 39.452C46.3291 40.9559 45.4161 42.3224 44.265 43.4735C43.114 44.6246 41.7474 45.5376 40.2435 46.1606C38.7396 46.7835 37.1277 47.1042 35.4998 47.1042ZM35.4998 0C26.2946 0 17.4664 3.65676 10.9573 10.1658C4.44826 16.6749 0.791504 25.5031 0.791504 34.7083C0.791504 60.7396 35.4998 99.1667 35.4998 99.1667C35.4998 99.1667 70.2082 60.7396 70.2082 34.7083C70.2082 25.5031 66.5514 16.6749 60.0423 10.1658C53.5333 3.65676 44.7051 0 35.4998 0Z" fill="#388E3C"/>
</svg>
