<svg width="" height="" viewBox="0 0 69 77" fill="none" xmlns="http://www.w3.org/2000/svg">
<path d="M65.9717 26.2544L42.1667 2.99946C40.1502 1.07381 37.4741 0 34.6917 0C31.9092 0 29.2332 1.07381 27.2167 2.99946L3.41167 26.1004C2.35398 27.0277 1.5033 28.1691 0.91536 29.4496C0.327421 30.7302 0.0154891 32.1211 0 33.5312V66.5654C0.0404051 69.3669 1.18467 72.038 3.18212 73.9937C5.17957 75.9494 7.86735 77.0302 10.6567 76.9994H58.3433C61.1326 77.0302 63.8204 75.9494 65.8179 73.9937C67.8153 72.038 68.9596 69.3669 69 66.5654V33.5312C68.997 32.1777 68.728 30.8382 68.2083 29.5895C67.6886 28.3407 66.9285 27.2073 65.9717 26.2544ZM32.3533 8.54367C32.9397 8.00527 33.7055 7.70672 34.5 7.70672C35.2945 7.70672 36.0603 8.00527 36.6467 8.54367L57.5 28.8725L36.5317 49.2013C35.9453 49.7397 35.1795 50.0382 34.385 50.0382C33.5905 50.0382 32.8247 49.7397 32.2383 49.2013L11.5 28.8725L32.3533 8.54367ZM61.3333 66.5654C61.284 67.3212 60.9449 68.0282 60.3873 68.538C59.8297 69.0478 59.097 69.3206 58.3433 69.299H10.6567C9.90295 69.3206 9.17028 69.0478 8.61267 68.538C8.05507 68.0282 7.71597 67.3212 7.66667 66.5654V35.9953L23.1917 51.0108L16.8283 57.1711C16.1144 57.8925 15.7136 58.8683 15.7136 59.8854C15.7136 60.9026 16.1144 61.8784 16.8283 62.5998C17.1846 62.9752 17.6128 63.2744 18.087 63.4795C18.5613 63.6846 19.072 63.7914 19.5883 63.7933C20.5753 63.7894 21.5227 63.4032 22.2333 62.7153L29.0183 56.17C30.7035 57.2043 32.6401 57.7516 34.615 57.7516C36.5899 57.7516 38.5265 57.2043 40.2117 56.17L46.9967 62.7153C47.7073 63.4032 48.6547 63.7894 49.6417 63.7933C50.158 63.7914 50.6687 63.6846 51.143 63.4795C51.6172 63.2744 52.0454 62.9752 52.4017 62.5998C53.1156 61.8784 53.5164 60.9026 53.5164 59.8854C53.5164 58.8683 53.1156 57.8925 52.4017 57.1711L46 51.0108L61.3333 35.9953V66.5654Z" fill="#388E3C"/>
</svg>
