<svg width="" height="" viewBox="0 0 60 60" fill="none" xmlns="http://www.w3.org/2000/svg">
<path d="M24.3079 13.7679C23.527 4.77958 14.1556 0.369301 13.759 0.189289C13.3883 0.0148982 12.9728 -0.0408197 12.5692 0.029734C1.75045 1.82576 0.123141 8.12615 0.0577218 8.38799C-0.0312842 8.75286 -0.0171278 9.13531 0.098609 9.4926C13.0026 49.5533 39.8205 56.9788 48.6358 59.4212C49.3146 59.6094 49.8747 59.7607 50.2999 59.8998C50.7852 60.0585 51.3124 60.0278 51.776 59.8139C52.0458 59.6912 58.4161 56.6883 59.9739 46.894C60.043 46.4665 59.9742 46.028 59.7776 45.6421C59.6386 45.3721 56.3063 39.0267 47.0658 36.7848C46.7523 36.7045 46.424 36.7017 46.1092 36.7766C45.7944 36.8514 45.5025 37.0016 45.2586 37.2143C42.3433 39.7059 38.3159 42.361 36.5782 42.6351C24.9294 36.9361 18.4243 26.0005 18.1789 23.9262C18.0358 22.7602 20.7058 18.665 23.7764 15.3348C23.9694 15.1252 24.1164 14.8775 24.2079 14.6076C24.2995 14.3378 24.3335 14.0517 24.3079 13.7679Z" fill="#388E3C"/>
</svg>
